# xmcd
#
# Track frame offsets:
#	150
#	11388
#	21402
#	45499
#	50049
#	55618
#	69995
#	85249
#	95211
#	110729
#	125265
#	143248
#	157659
#	174283
#	177640
#	199303
#	202666
#	218303
#
# Disc length: 3072 seconds
#
# Revision: 0
# Processed by: cddbd v1.5.1PL2 Copyright (c) Steve Scherf et al.
# Submitted via: EasyCDDAExtractor 9.0.0.1
#
DISCID=ef0bfe12
DTITLE=Various Artist -  
DYEAR=1900
DGENRE=
TTITLE0=Kelly Clarkson - Walk Away (Chris Cox Mix)
TTITLE1=Eddie Thoneick and Kurd Maverick - Love Sensation (Eddie Thoneick's Sens
TTITLE1=ation Mix)
TTITLE2=Melba Moore - My Heart Belongs To You (Original Mix)
TTITLE3=kristine hendricks - youve got it all (valentin radio mix)
TTITLE4=persephones bees - nice day (chris cox radio mix)
TTITLE5=The Modern - Industry (Sebastian Ingrosso mix)
TTITLE6=Paul Oakenfold - Fast Kill Pussycat (Roman Hunter Mix)
TTITLE7=Eddie Thoneick and Kurd Maverick - Love Sensation (Eddie Thoneick's Sens
TTITLE7=ation Mix)
TTITLE8=after touch - luv dem drumspart 
TTITLE9=Rob Boskamp - In The Evening (Extended Mix)
TTITLE10=miss dark angel - hung up
TTITLE11=after touch - luv dem drums part 1
TTITLE12=kim english - it makes a difference (tony moran and warren rigg radio
TTITLE12=edit)
TTITLE13=In-N-Out  - Eq-Lizer (Steve Angello and Sebastian Ingrosso Mix)pt 1
TTITLE14=electric gang - sail away
TTITLE15=Praise Cats feat Andrea Love - Love Is The Key (Original Mix)
TTITLE16=black eyed peas vs. axer - 123 pump it-bex
TTITLE17=Gnarls Barkley - Crazy
EXTD=
EXTT0=
EXTT1=
EXTT2=
EXTT3=
EXTT4=
EXTT5=
EXTT6=
EXTT7=
EXTT8=
EXTT9=
EXTT10=
EXTT11=
EXTT12=
EXTT13=
EXTT14=
EXTT15=
EXTT16=
EXTT17=
PLAYORDER=
